<?xml version="1.0" encoding="utf-8"?>
<svg id="Layer_1" data-name="Layer 1" viewBox="157.867 383.392 950.022 280.106" xmlns="http://www.w3.org/2000/svg">
  <defs>
    <style>.cls-1{fill:#191964;}</style>
  </defs>
  <path class="cls-1" d="M453,451.35q6.75,4.26,15.32,14.91V389.45h24.41l.82,214.49H469.88l0-26.37q-8.85,14.05-20.94,20.31t-27.7,6.24q-25.17,0-43.58-21.37t-18.41-56.86q0-33.22,16.79-57.57T424,444Q441.32,444,453,451.35Zm-56.7,115.16Q406.53,583,429.13,583q17.56,0,28.86-15.26t11.3-43.8q0-28.83-11.66-42.67t-28.78-13.84q-19.1,0-31,14.76T386,525.62Q386,550,396.28,566.51Z"/>
  <path class="cls-1" d="M622.27,462.7q20,19.47,20,57.25,0,36.51-17.66,60.35t-54.79,23.82q-31,0-49.18-21.08t-18.22-56.6q0-38.09,19.2-60.63t51.57-22.56Q602.24,443.25,622.27,462.7ZM606.5,564.16q9.29-19.1,9.28-42.49,0-21.15-6.7-34.39-10.61-20.86-36.56-20.87-23,0-33.48,17.77T528.57,527q0,24.11,10.47,40.17t33.21,16.07Q597.22,583.26,606.5,564.16Z"/>
  <path class="cls-1" d="M1033,451q15.08,7.57,23,19.63a68,68,0,0,1,10.14,26.8q2.25,10.49,2.26,33.45l-112.28-.47A67.73,67.73,0,0,0,968.79,568q10.13,14,31.37,14,19.83,0,31.65-13.24a45.17,45.17,0,0,0,9.37-17.8h25.09q-1,8.35-6.59,18.64a67.18,67.18,0,0,1-12.49,16.8,59,59,0,0,1-28.56,15.31A86.4,86.4,0,0,1,997.94,604q-28.19,0-47.76-20.63T930.6,525.6q0-36.59,19.72-59.4t51.57-22.83A68.45,68.45,0,0,1,1033,451Zm9.14,59.61q-1.55-16.59-7.17-26.51-10.39-18.44-34.72-18.43A38.33,38.33,0,0,0,971,478.32c-7.88,8.46-14.46,19.21-14.92,32.25Z"/>
  <path class="cls-1" d="M1075.5,391.87h25.4V604h-25.4Z"/>
  <rect class="cls-1" x="490.98" y="389.45" width="4.45" height="214.49"/>
  <path class="cls-1" d="M905.53,463.32c-12-13.12-26.55-19.55-43.71-19.69-1.67,0-20.39-1.05-31.44,6.44-9.44,6.41-16,18.5-16,29.2l.42-36.27H790V655.88h25.4V581.51q8.36,10.29,15.16,14.53,11.61,7.49,28.75,7.48a58.73,58.73,0,0,0,38.26-13.41q25.92-21.17,25.92-70.55Q923.5,483,905.53,463.32ZM886.42,566.48q-11.82,14.88-29.67,14.89-26.32,0-36.25-23.43-5.24-12.29-5.23-29.78,0-21.72,5.23-35.84,9.78-26.38,36.25-26.39t36.25,25q5.25,13,5.24,31Q898.24,551.59,886.42,566.48Z"/>
  <path class="cls-1" d="M160.06,527.23h40.53a4.68,4.68,0,0,0,4.68-4.33c.8-11.09,5.08-39.67,27.84-40.1l54.52-1a4.63,4.63,0,0,0,3.13-1.28l21-19.84a4.68,4.68,0,0,0,1.47-3.42V436.3l-87,1.32-.5,0C221.18,438.22,157.62,447.62,160.06,527.23Z"/>
  <path class="cls-1" d="M318.15,522.34h-43.9s.21,42.81-27.33,43.33l-53.16,1a4.64,4.64,0,0,0-3.06,1.25l-20.51,19.35a4.58,4.58,0,0,0-1.44,3.33V611l84.86-1.29.49,0C258.55,609.13,320.53,600,318.15,522.34Z"/>
  <path class="cls-1" d="M764.93,463.36c-12-13.12-26.55-19.56-43.71-19.69-1.66,0-20.38-1.06-31.43,6.43-9.44,6.41-16,18.51-16,29.21l.42-36.27H649.41V655.92h25.4V581.55q8.36,10.29,15.16,14.53,11.61,7.49,28.75,7.48A58.73,58.73,0,0,0,757,590.15Q782.9,569,782.9,519.6,782.9,483,764.93,463.36ZM745.82,566.52Q734,581.4,716.15,581.41q-26.32,0-36.25-23.43-5.24-12.29-5.23-29.78,0-21.72,5.23-35.84Q689.68,466,716.15,466t36.25,25q5.25,13,5.24,31Q757.64,551.63,745.82,566.52Z"/>
</svg>