{
	"asset":{
		"generator":"Khronos glTF Blender I/O v3.5.30",
		"version":"2.0"
	},
	"scene":0,
	"scenes":[
		{
			"name":"Scene",
			"nodes":[
				0
			]
		}
	],
	"nodes":[
		{
			"mesh":0,
			"name":"Capitel_low_retro",
			"rotation":[
				0.7071068286895752,
				0,
				0,
				0.7071068286895752
			]
		}
	],
	"materials":[
		{
			"doubleSided":true,
			"emissiveFactor":[
				1,
				1,
				1
			],
			"emissiveTexture":{
				"index":0
			},
			"name":"Default OBJ.003",
			"normalTexture":{
				"index":1
			},
			"pbrMetallicRoughness":{
				"baseColorTexture":{
					"index":2
				},
				"metallicRoughnessTexture":{
					"index":3
				}
			}
		}
	],
	"meshes":[
		{
			"name":"Capitel_low_retro.002",
			"primitives":[
				{
					"attributes":{
						"POSITION":0,
						"TEXCOORD_0":1,
						"NORMAL":2
					},
					"indices":3,
					"material":0
				}
			]
		}
	],
	"textures":[
		{
			"sampler":0,
			"source":0
		},
		{
			"sampler":0,
			"source":1
		},
		{
			"sampler":0,
			"source":2
		},
		{
			"sampler":0,
			"source":3
		}
	],
	"images":[
		{
			"mimeType":"image/png",
			"name":"Capitel_low_retro_Default OBJ_Emissive",
			"uri":"Capitel_low_retro_Default%20OBJ_Emissive.png"
		},
		{
			"mimeType":"image/png",
			"name":"Capitel_low_retro_Default OBJ_Normal",
			"uri":"Capitel_low_retro_Default%20OBJ_Normal.png"
		},
		{
			"mimeType":"image/png",
			"name":"Capitel_low_retro_Default OBJ_BaseColor",
			"uri":"Capitel_low_retro_Default%20OBJ_BaseColor.png"
		},
		{
			"mimeType":"image/png",
			"name":"Capitel_low_retro_Default OBJ_Metallic-Capitel_low_retro_Default OBJ_Roughness",
			"uri":"Capitel_low_retro_Default%20OBJ_Metallic-Capitel_low_retro_Default%20OBJ_Roughness.png"
		}
	],
	"accessors":[
		{
			"bufferView":0,
			"componentType":5126,
			"count":8709,
			"max":[
				0.08437347412109375,
				0.0920095443725586,
				0.10429254174232483
			],
			"min":[
				-0.08972549438476562,
				-0.0954904556274414,
				-0.09844785928726196
			],
			"type":"VEC3"
		},
		{
			"bufferView":1,
			"componentType":5126,
			"count":8709,
			"type":"VEC2"
		},
		{
			"bufferView":2,
			"componentType":5126,
			"count":8709,
			"type":"VEC3"
		},
		{
			"bufferView":3,
			"componentType":5123,
			"count":48525,
			"type":"SCALAR"
		}
	],
	"bufferViews":[
		{
			"buffer":0,
			"byteLength":104508,
			"byteOffset":0,
			"target":34962
		},
		{
			"buffer":0,
			"byteLength":69672,
			"byteOffset":104508,
			"target":34962
		},
		{
			"buffer":0,
			"byteLength":104508,
			"byteOffset":174180,
			"target":34962
		},
		{
			"buffer":0,
			"byteLength":97050,
			"byteOffset":278688,
			"target":34963
		}
	],
	"samplers":[
		{
			"magFilter":9729,
			"minFilter":9987
		}
	],
	"buffers":[
		{
			"byteLength":375740,
			"uri":"Capitel_low.bin"
		}
	]
}
