<?xml version="1.0" standalone="no"?>
<!DOCTYPE svg PUBLIC "-//W3C//DTD SVG 20010904//EN"
 "http://www.w3.org/TR/2001/REC-SVG-20010904/DTD/svg10.dtd">
<svg version="1.0" xmlns="http://www.w3.org/2000/svg"
 width="215.000000pt" height="220.000000pt" viewBox="0 0 215.000000 220.000000"
 preserveAspectRatio="xMidYMid meet">

<g transform="translate(0.000000,220.000000) scale(0.100000,-0.100000)"
fill="#000000" stroke="none">
<path d="M1165 2175 c-40 -39 -30 -67 39 -115 49 -33 64 -63 46 -85 -27 -32
-86 -15 -106 29 l-13 31 -1 -32 c0 -26 5 -33 31 -42 48 -17 87 -13 109 9 37
37 26 66 -46 120 -58 43 -68 72 -34 90 29 16 58 3 81 -33 l19 -32 0 31 c0 27
-5 32 -39 42 -53 16 -58 15 -86 -13z"/>
<path d="M873 2183 c-9 -3 -10 -10 -4 -22 5 -9 13 -61 17 -114 l7 -97 29 0
c27 0 28 1 14 16 -19 19 -22 94 -4 94 7 0 35 -23 63 -50 34 -34 57 -49 67 -45
12 5 5 17 -33 52 l-50 46 26 27 c52 54 21 100 -66 99 -30 0 -60 -3 -66 -6z
m105 -15 c21 -21 14 -66 -13 -84 -39 -26 -55 -12 -55 46 0 48 1 50 28 50 15 0
33 -5 40 -12z"/>
<path d="M1404 2141 c4 -6 -7 -56 -24 -111 -23 -75 -35 -100 -48 -101 -9 0 -1
-7 18 -14 40 -16 61 -19 41 -6 -20 13 42 211 67 211 14 1 15 2 2 9 -29 17 -63
24 -56 12z"/>
<path d="M645 2105 c-38 -18 -65 -34 -59 -34 6 -1 30 -44 53 -96 37 -80 41
-97 31 -110 -8 -9 19 -1 65 20 42 19 79 35 81 35 2 0 3 15 3 33 -1 21 -3 25
-6 12 -3 -11 -10 -26 -16 -33 -10 -13 -78 -45 -82 -40 -6 7 -45 88 -45 92 0
10 72 36 81 30 12 -7 11 7 -1 26 -6 10 -10 11 -10 3 0 -11 -69 -48 -75 -41 -8
9 -35 69 -35 76 0 14 77 45 95 38 11 -4 15 -2 13 6 -7 20 -21 18 -93 -17z"/>
<path d="M1566 2058 c-3 -13 -30 -60 -59 -104 l-54 -82 52 -31 c72 -44 125
-43 171 3 29 29 34 41 34 83 0 42 -4 53 -32 79 -18 17 -49 41 -69 53 l-37 21
-6 -22z m86 -45 c42 -40 40 -99 -6 -147 -27 -29 -40 -36 -72 -36 -22 0 -49 8
-62 18 l-24 18 56 87 c31 48 61 87 68 87 7 0 25 -12 40 -27z"/>
<path d="M462 2008 c-8 -8 -8 -15 -1 -24 12 -15 60 -166 54 -172 -8 -8 -147
73 -154 89 -5 15 -11 13 -40 -11 -23 -19 -27 -27 -15 -24 12 3 64 -17 129 -49
61 -30 111 -54 113 -53 1 2 -7 29 -18 62 -12 32 -29 89 -39 126 -13 52 -20 65
-29 56z"/>
<path d="M887 1879 c-216 -53 -408 -206 -507 -402 -70 -139 -85 -203 -85 -362
1 -132 3 -146 33 -235 76 -220 205 -369 401 -464 132 -64 254 -90 384 -83 126
7 197 26 312 82 110 53 187 113 260 202 155 187 214 448 156 686 -70 290 -307
521 -599 582 -95 21 -260 18 -355 -6z m-132 -484 c92 -102 176 -190 186 -195
32 -18 69 -11 94 16 36 39 41 85 17 136 -24 48 -21 58 17 58 43 0 55 -21 41
-66 -25 -75 13 -154 74 -154 35 0 99 61 291 275 55 61 102 111 105 113 12 5
-10 -205 -30 -281 -55 -219 -146 -316 -283 -304 -34 3 -69 8 -77 11 -11 4 -27
-19 -61 -92 l-45 -97 -47 99 c-39 82 -50 97 -64 91 -10 -5 -45 -10 -79 -13
-74 -5 -124 17 -177 79 -41 47 -88 167 -110 280 -16 80 -32 229 -24 229 3 0
80 -83 172 -185z m405 -817 c0 -5 -34 -8 -75 -8 -41 0 -75 4 -75 9 0 5 17 44
37 87 l37 78 38 -79 c20 -44 38 -83 38 -87z"/>
<path d="M1790 1769 c-52 -16 -106 -29 -119 -29 -20 0 -21 -2 -11 -15 11 -13
15 -13 33 0 34 24 60 18 90 -20 28 -35 28 -35 10 -65 -10 -18 -23 -28 -31 -25
-8 3 -5 -7 8 -24 l20 -30 60 115 c33 64 60 117 60 120 0 8 -24 2 -120 -27z
m70 -5 c0 -10 -41 -74 -47 -74 -7 0 -42 43 -43 52 0 4 15 12 33 17 40 11 57
13 57 5z"/>
<path d="M217 1767 c-13 -20 -14 -27 -4 -27 18 0 177 -118 177 -131 0 -6 9 -1
19 12 19 24 19 24 -4 34 -41 18 -164 109 -167 124 -2 10 -9 6 -21 -12z"/>
<path d="M126 1623 c-8 -21 -7 -25 5 -18 5 4 32 -3 59 -14 27 -12 61 -26 77
-32 26 -10 22 -13 -82 -45 -99 -31 -135 -51 -135 -76 0 -4 8 -3 18 3 16 10 36
6 107 -22 51 -20 90 -41 94 -52 5 -14 9 -12 18 14 9 23 9 28 0 21 -14 -12
-174 46 -160 58 4 4 56 22 116 40 59 19 104 37 100 40 -5 4 -39 19 -78 34 -38
15 -84 36 -102 46 -27 16 -32 16 -37 3z"/>
<path d="M2035 1582 c-20 -18 -186 -74 -202 -68 -11 5 -13 2 -8 -11 4 -10 14
-37 22 -60 30 -85 94 -118 170 -88 58 23 81 69 65 130 -19 73 -36 107 -47 97z
m35 -100 c0 -35 -25 -77 -55 -90 -36 -16 -96 -15 -121 3 -20 13 -51 72 -43 79
2 2 47 19 99 38 l95 35 12 -21 c7 -11 12 -31 13 -44z"/>
<path d="M21 1315 l-1 -30 90 -1 c107 -1 130 -14 130 -75 0 -62 -19 -73 -119
-65 -47 4 -91 12 -98 18 -10 8 -13 6 -13 -8 0 -11 -3 -30 -6 -44 -5 -22 -4
-23 6 -7 11 16 21 18 99 12 58 -5 95 -4 109 4 26 14 46 72 37 110 -12 56 -26
61 -222 81 -1 0 -4 8 -6 18 -3 9 -5 4 -6 -13z"/>
<path d="M2050 1258 c-41 -5 -92 -7 -112 -6 l-38 4 1 -46 c1 -25 4 -36 6 -25
7 28 21 35 72 35 l44 0 -5 -51 c-4 -41 -2 -49 9 -45 8 4 17 6 19 6 3 0 0 9 -6
20 -6 12 -10 33 -8 48 3 25 7 27 52 30 l48 3 -4 -61 c-3 -40 -1 -59 6 -57 6 2
11 11 10 20 0 10 -1 44 -2 77 -1 33 -5 59 -9 59 -5 -1 -42 -6 -83 -11z"/>
<path d="M1911 1128 c-1 -33 2 -38 21 -38 19 0 20 1 6 13 -9 6 -19 23 -21 37
-3 18 -5 14 -6 -12z"/>
<path d="M300 740 c0 -17 -159 -120 -184 -120 -12 0 -8 -12 18 -52 42 -66 74
-90 118 -90 77 0 136 61 125 129 -6 36 -77 158 -77 133z m56 -105 c15 -61 -76
-145 -140 -129 -27 6 -79 60 -74 75 2 5 41 34 88 64 l85 55 18 -21 c9 -12 20
-32 23 -44z"/>
<path d="M1827 646 c3 -6 32 -40 63 -76 31 -36 65 -77 77 -92 20 -27 33 -27
33 -1 0 8 -4 12 -9 9 -4 -3 -18 6 -31 19 l-23 24 22 46 c16 35 26 45 45 45 14
0 31 -6 39 -14 12 -13 16 -10 29 17 l15 32 -133 1 c-98 2 -132 -1 -127 -10z
m119 -26 c24 0 24 0 7 -35 -9 -19 -20 -35 -24 -35 -4 0 -22 19 -40 42 l-33 41
33 -6 c18 -4 44 -7 57 -7z"/>
<path d="M400 428 c-50 -53 -79 -77 -90 -73 -8 3 13 -22 46 -56 57 -56 64 -61
90 -53 l29 8 -31 4 c-19 2 -44 16 -63 35 l-31 33 38 38 39 37 31 -35 c26 -30
32 -33 42 -20 10 11 9 14 -2 14 -8 0 -25 11 -38 25 l-24 25 35 36 34 35 33
-36 c21 -23 31 -42 28 -52 -6 -13 -4 -14 9 -3 14 12 10 20 -37 67 -29 29 -55
52 -58 52 -3 -1 -39 -37 -80 -81z"/>
<path d="M1665 459 l-44 -40 84 -87 84 -87 23 23 c13 13 16 21 8 17 -22 -8
-165 138 -157 159 9 22 31 30 62 22 32 -8 43 -48 21 -81 -14 -21 -14 -24 -1
-19 8 3 45 1 82 -6 62 -10 68 -10 87 10 l21 20 -30 -5 c-17 -3 -50 -2 -75 2
-44 8 -45 9 -45 47 0 40 -22 66 -57 66 -10 0 -38 -18 -63 -41z"/>
<path d="M1432 324 c-75 -52 -64 -173 21 -217 44 -23 84 -16 127 19 81 68 24
214 -84 214 -23 0 -52 -7 -64 -16z m96 -14 c30 -29 62 -94 62 -128 0 -65 -83
-97 -127 -49 -58 63 -70 142 -27 176 34 27 64 27 92 1z"/>
<path d="M900 311 c-15 -30 -12 -33 15 -15 28 18 33 34 10 34 -8 0 -19 -9 -25
-19z"/>
<path d="M822 228 c-2 -44 -20 -171 -27 -190 -5 -13 7 -17 61 -23 37 -4 73 -9
79 -11 6 -3 17 8 24 23 12 27 12 27 -6 10 -20 -17 -60 -22 -101 -11 -21 6 -22
10 -16 53 3 25 13 52 22 59 9 7 11 12 4 12 -13 0 -15 31 -6 68 5 16 14 22 35
22 40 0 77 -16 82 -37 3 -12 5 -10 6 8 1 24 -3 27 -46 33 -27 4 -62 9 -79 12
-29 5 -31 4 -32 -28z"/>
<path d="M1248 253 c16 -6 15 -40 -4 -125 l-16 -70 -49 73 c-51 78 -57 94 -36
103 6 3 -4 3 -23 0 -19 -4 -36 -7 -38 -9 -1 -1 30 -50 69 -109 38 -60 73 -106
75 -103 3 3 16 52 29 109 13 56 27 111 30 121 6 14 2 17 -21 16 -16 0 -23 -3
-16 -6z"/>
<path d="M937 155 c-4 -8 -19 -15 -34 -16 -27 -1 -27 -1 -4 -8 13 -3 27 -15
31 -26 5 -15 8 -10 13 20 7 41 3 56 -6 30z"/>
</g>
</svg>
